<?xml version="1.0" encoding="UTF-8"?>
<svg version="1.1" xmlns="http://www.w3.org/2000/svg" viewBox="33 222 58 54">
  <path d="M0 0 C0.7347757 -0.00570007 1.46955139 -0.01140015 2.22659302 -0.01727295 C3.77816336 -0.02669873 5.32975349 -0.03324729 6.88134766 -0.03710938 C9.24287153 -0.0468136 11.60352392 -0.07785791 13.96484375 -0.109375 C15.47655736 -0.11590612 16.98827716 -0.12115616 18.5 -0.125 C19.20019257 -0.1373468 19.90038513 -0.1496936 20.62179565 -0.16241455 C26.60999088 -0.13548507 30.41046933 1.31480311 34.72680664 5.44726562 C36.82534026 8.93956218 36.88496973 11.23697689 36.87890625 15.296875 C36.88036148 15.96601929 36.88181671 16.63516357 36.88331604 17.32458496 C36.88166298 18.73319879 36.87016802 20.14183179 36.84936523 21.55029297 C36.82039414 23.6970755 36.82876901 25.84138689 36.84179688 27.98828125 C36.78759801 39.92351493 36.78759801 39.92351493 33.3828125 44.203125 C29.19357489 47.68876111 24.98422421 47.64175234 19.7578125 47.6015625 C18.5210376 47.60586777 18.5210376 47.60586777 17.25927734 47.61026001 C15.52115184 47.61229572 13.78300317 47.6068004 12.04492188 47.59423828 C9.39140371 47.578177 6.73940855 47.59410309 4.0859375 47.61328125 C2.39322582 47.61129873 0.70051508 47.60745487 -0.9921875 47.6015625 C-2.17675537 47.61067154 -2.17675537 47.61067154 -3.38525391 47.6199646 C-9.49303327 47.54236116 -12.66523158 46.17843765 -16.90234375 41.890625 C-20.07599656 36.71045618 -19.14739241 30.04054392 -19.0546875 24.203125 C-19.06177734 22.945 -19.06886719 21.686875 -19.07617188 20.390625 C-19.03278527 14.08955468 -18.87940005 9.74324029 -15.6171875 4.203125 C-10.99246039 -0.12323262 -6.07103805 0.03663685 0 0 Z " fill="#010101" transform="translate(52.6171875,225.796875)"/>
  <path d="M0 0 C4.00604133 1.00151033 7.18205795 2.5824882 10.75 4.5625 C11.65298828 5.0565332 11.65298828 5.0565332 12.57421875 5.56054688 C14.05170503 6.3696465 15.52616036 7.18427662 17 8 C17.33 5.69 17.66 3.38 18 1 C23.82766367 1.46472597 27.91747695 3.9288054 32.8125 6.875 C33.58787109 7.32230469 34.36324219 7.76960937 35.16210938 8.23046875 C40.87259746 11.61779239 40.87259746 11.61779239 42 15 C38.75872585 17.01441171 35.50565917 19.00893571 32.25 21 C31.32960938 21.57234375 30.40921875 22.1446875 29.4609375 22.734375 C28.57148437 23.27578125 27.68203125 23.8171875 26.765625 24.375 C25.94868164 24.87773437 25.13173828 25.38046875 24.29003906 25.8984375 C22 27 22 27 18 27 C18 24.03 18 21.06 18 18 C16.95199219 18.6496875 15.90398438 19.299375 14.82421875 19.96875 C13.44552546 20.81284793 12.06660746 21.65657891 10.6875 22.5 C9.99720703 22.92925781 9.30691406 23.35851562 8.59570312 23.80078125 C7.92861328 24.20683594 7.26152344 24.61289062 6.57421875 25.03125 C5.96151123 25.40830078 5.34880371 25.78535156 4.7175293 26.17382812 C3 27 3 27 0 27 C0 18.09 0 9.18 0 0 Z " fill="#F7F7F7" transform="translate(42,236)"/>
</svg>
