<?xml version="1.0" encoding="UTF-8"?>
<svg version="1.1" xmlns="http://www.w3.org/2000/svg" width="500" height="500">
<path d="M0 0 C0.7347757 -0.00570007 1.46955139 -0.01140015 2.22659302 -0.01727295 C3.77816336 -0.02669873 5.32975349 -0.03324729 6.88134766 -0.03710938 C9.24287153 -0.0468136 11.60352392 -0.07785791 13.96484375 -0.109375 C15.47655736 -0.11590612 16.98827716 -0.12115616 18.5 -0.125 C19.20019257 -0.1373468 19.90038513 -0.1496936 20.62179565 -0.16241455 C26.60999088 -0.13548507 30.41046933 1.31480311 34.72680664 5.44726562 C36.82534026 8.93956218 36.88496973 11.23697689 36.87890625 15.296875 C36.88036148 15.96601929 36.88181671 16.63516357 36.88331604 17.32458496 C36.88166298 18.73319879 36.87016802 20.14183179 36.84936523 21.55029297 C36.82039414 23.6970755 36.82876901 25.84138689 36.84179688 27.98828125 C36.78759801 39.92351493 36.78759801 39.92351493 33.3828125 44.203125 C29.19357489 47.68876111 24.98422421 47.64175234 19.7578125 47.6015625 C18.5210376 47.60586777 18.5210376 47.60586777 17.25927734 47.61026001 C15.52115184 47.61229572 13.78300317 47.6068004 12.04492188 47.59423828 C9.39140371 47.578177 6.73940855 47.59410309 4.0859375 47.61328125 C2.39322582 47.61129873 0.70051508 47.60745487 -0.9921875 47.6015625 C-2.17675537 47.61067154 -2.17675537 47.61067154 -3.38525391 47.6199646 C-9.49303327 47.54236116 -12.66523158 46.17843765 -16.90234375 41.890625 C-20.07599656 36.71045618 -19.14739241 30.04054392 -19.0546875 24.203125 C-19.06177734 22.945 -19.06886719 21.686875 -19.07617188 20.390625 C-19.03278527 14.08955468 -18.87940005 9.74324029 -15.6171875 4.203125 C-10.99246039 -0.12323262 -6.07103805 0.03663685 0 0 Z " fill="#010101" transform="translate(52.6171875,225.796875)"/>
<path d="M0 0 C2.97 0 5.94 0 9 0 C9 2.31 9 4.62 9 7 C11.31 7 13.62 7 16 7 C16 9.31 16 11.62 16 14 C13.69 14 11.38 14 9 14 C9.495 20.435 9.495 20.435 10 27 C11.98 27 13.96 27 16 27 C16.66 29.31 17.32 31.62 18 34 C14.29361264 36.47092491 11.29830496 36.55407837 7 36 C3.41447119 34.36312815 2.20684945 33.31027417 0 30 C-0.14245897 27.23344676 -0.18769445 24.57346694 -0.125 21.8125 C-0.11597656 21.06291016 -0.10695312 20.31332031 -0.09765625 19.54101562 C-0.07412578 17.69387346 -0.03825561 15.84689588 0 14 C-1.60495567 14.11442461 -3.20898119 14.24194694 -4.8125 14.375 C-5.70582031 14.44460937 -6.59914062 14.51421875 -7.51953125 14.5859375 C-10.24398499 14.86645036 -10.24398499 14.86645036 -13 17 C-14.18695553 20.56086658 -14.35095418 23.97331024 -14.5625 27.6875 C-14.60568359 28.38939453 -14.64886719 29.09128906 -14.69335938 29.81445312 C-14.7991736 31.54275206 -14.90006581 33.2713511 -15 35 C-17.97 35 -20.94 35 -24 35 C-24 25.43 -24 15.86 -24 6 C-21.03 6 -18.06 6 -15 6 C-15 6.66 -15 7.32 -15 8 C-14.45859375 7.66226563 -13.9171875 7.32453125 -13.359375 6.9765625 C-10.38940883 5.74727187 -8.42367191 5.99718192 -5.25 6.375 C-4.26515625 6.48585937 -3.2803125 6.59671875 -2.265625 6.7109375 C-1.14414063 6.85402344 -1.14414063 6.85402344 0 7 C0 4.69 0 2.38 0 0 Z " fill="#000000" transform="translate(229,233)"/>
<path d="M0 0 C1.3303125 0.7425 1.3303125 0.7425 2.6875 1.5 C2.08888258 3.85171131 1.41825648 6.1859378 0.6875 8.5 C-0.3025 8.995 -0.3025 8.995 -1.3125 9.5 C-1.993125 9.190625 -2.67375 8.88125 -3.375 8.5625 C-7.38823718 7.11090357 -11.08950348 7.33439229 -15.3125 7.5 C-15.6425 8.82 -15.9725 10.14 -16.3125 11.5 C-15.20390625 11.81453125 -14.0953125 12.1290625 -12.953125 12.453125 C-11.48938392 12.88474096 -10.02585305 13.31707029 -8.5625 13.75 C-7.83289063 13.95496094 -7.10328125 14.15992188 -6.3515625 14.37109375 C-2.09700721 15.64746034 1.01165294 16.73730503 3.6875 20.5 C4.49059665 23.9062375 4.33262025 27.06862763 3.6875 30.5 C0.86104751 34.37627769 -1.83351464 36.00917493 -6.3125 37.5 C-13.47970114 38.26120619 -19.89863743 37.8884557 -26.3125 34.5 C-27.109375 32.5625 -27.109375 32.5625 -27.3125 30.5 C-25.875 27.75 -25.875 27.75 -24.3125 25.5 C-23.36375 25.995 -22.415 26.49 -21.4375 27 C-16.79662567 29.02978692 -12.28859428 28.77033108 -7.3125 28.5 C-7.3125 27.18 -7.3125 25.86 -7.3125 24.5 C-8.34890625 24.18546875 -9.3853125 23.8709375 -10.453125 23.546875 C-11.82312131 23.11523233 -13.19290186 22.6829044 -14.5625 22.25 C-15.24441406 22.04503906 -15.92632812 21.84007812 -16.62890625 21.62890625 C-20.8027052 20.29166969 -23.58638911 18.97021064 -26.3125 15.5 C-27.57411719 11.71514842 -27.37866222 9.73983806 -26.3125 5.875 C-20.91703874 -3.22984087 -9.25482516 -3.9394266 0 0 Z " fill="#000000" transform="translate(125.3125,231.5)"/>
<path d="M0 0 C4.00604133 1.00151033 7.18205795 2.5824882 10.75 4.5625 C11.65298828 5.0565332 11.65298828 5.0565332 12.57421875 5.56054688 C14.05170503 6.3696465 15.52616036 7.18427662 17 8 C17.33 5.69 17.66 3.38 18 1 C23.82766367 1.46472597 27.91747695 3.9288054 32.8125 6.875 C33.58787109 7.32230469 34.36324219 7.76960937 35.16210938 8.23046875 C40.87259746 11.61779239 40.87259746 11.61779239 42 15 C38.75872585 17.01441171 35.50565917 19.00893571 32.25 21 C31.32960938 21.57234375 30.40921875 22.1446875 29.4609375 22.734375 C28.57148437 23.27578125 27.68203125 23.8171875 26.765625 24.375 C25.94868164 24.87773437 25.13173828 25.38046875 24.29003906 25.8984375 C22 27 22 27 18 27 C18 24.03 18 21.06 18 18 C16.95199219 18.6496875 15.90398438 19.299375 14.82421875 19.96875 C13.44552546 20.81284793 12.06660746 21.65657891 10.6875 22.5 C9.99720703 22.92925781 9.30691406 23.35851562 8.59570312 23.80078125 C7.92861328 24.20683594 7.26152344 24.61289062 6.57421875 25.03125 C5.96151123 25.40830078 5.34880371 25.78535156 4.7175293 26.17382812 C3 27 3 27 0 27 C0 18.09 0 9.18 0 0 Z " fill="#F7F7F7" transform="translate(42,236)"/>
<path d="M0 0 C2.97 0 5.94 0 9 0 C9.33 3.96 9.66 7.92 10 12 C10.66 11.67 11.32 11.34 12 11 C17.08942479 10.50007261 21.51742937 10.18307333 26.0625 12.6875 C30.62656544 18.13493294 30.24964373 23.52900482 30.125 30.3125 C30.11597656 31.24384766 30.10695312 32.17519531 30.09765625 33.13476562 C30.07418422 35.42328823 30.03831609 37.71167779 30 40 C27.03 40 24.06 40 21 40 C20.95101562 38.80761719 20.90203125 37.61523438 20.8515625 36.38671875 C20.77652396 34.82028932 20.7009766 33.25388421 20.625 31.6875 C20.5940625 30.90181641 20.563125 30.11613281 20.53125 29.30664062 C20.49257812 28.54931641 20.45390625 27.79199219 20.4140625 27.01171875 C20.36693115 25.96697388 20.36693115 25.96697388 20.31884766 24.90112305 C20.07881747 22.67467261 20.07881747 22.67467261 18 20 C15 19.5 15 19.5 12 20 C10.0243438 22.96348429 9.73623141 23.68020373 9.5859375 27.01171875 C9.52792969 28.14770508 9.52792969 28.14770508 9.46875 29.30664062 C9.42234375 30.48516602 9.42234375 30.48516602 9.375 31.6875 C9.31699219 32.88342773 9.31699219 32.88342773 9.2578125 34.10351562 C9.16367506 36.06863475 9.08075368 38.0342854 9 40 C6.03 40 3.06 40 0 40 C0 26.8 0 13.6 0 0 Z " fill="#000000" transform="translate(134,228)"/>
<path d="M0 0 C3.84210084 2.04472319 6.28478782 4.20876999 7.7578125 8.28125 C8.28186751 13.17489045 8.43085418 17.61635742 6.5703125 22.21875 C3.19238755 26.06259564 -0.00001102 28.89116565 -5.22265625 29.51953125 C-10.99015879 29.71348266 -15.65198929 28.98034879 -20.2421875 25.28125 C-23.78968298 20.67450235 -24.99354809 16.07746028 -24.2421875 10.28125 C-20.29067012 -0.32545455 -10.42330669 -3.34126904 0 0 Z M-12.0546875 7.71875 C-14.33373903 10.38849608 -14.63282485 11.01698022 -14.8046875 14.34375 C-14.5815037 18.17976827 -14.5815037 18.17976827 -12.6796875 20.34375 C-9.1914867 21.68536569 -6.81693406 21.20803615 -3.2421875 20.28125 C-0.91639649 16.79256349 -0.82353293 15.38406481 -1.2421875 11.28125 C-2.70076047 8.44087105 -3.67437605 7.5203285 -6.6171875 6.28125 C-9.37905061 6.08213891 -9.37905061 6.08213891 -12.0546875 7.71875 Z " fill="#000000" transform="translate(192.2421875,239.71875)"/>
<path d="M0 0 C0.70125 -0.474375 1.4025 -0.94875 2.125 -1.4375 C6.61822772 -3.87947158 9.66817775 -4.2708791 14.6875 -3.25 C17.69719881 -2.1142646 19.15846243 -1.55769107 21 1 C21.98043964 3.94131891 22.11621202 5.82501665 22.09765625 8.88671875 C22.09443359 9.82451172 22.09121094 10.76230469 22.08789062 11.72851562 C22.07532227 13.19321289 22.07532227 13.19321289 22.0625 14.6875 C22.05798828 15.67556641 22.05347656 16.66363281 22.04882812 17.68164062 C22.03704303 20.12115474 22.02059011 22.56054689 22 25 C20.35 25 18.7 25 17 25 C16.98541748 24.40985107 16.97083496 23.81970215 16.95581055 23.21166992 C16.88131156 20.53628771 16.78466005 17.86215108 16.6875 15.1875 C16.65366211 13.7943457 16.65366211 13.7943457 16.61914062 12.37304688 C16.58369141 11.48037109 16.54824219 10.58769531 16.51171875 9.66796875 C16.48553467 8.84578857 16.45935059 8.0236084 16.43237305 7.17651367 C15.9023026 4.50820311 15.17539875 3.60227759 13 2 C9.54250051 1.33323122 9.54250051 1.33323122 6 2 C2.78294487 4.88206554 1.74985927 7.23368876 1.390625 11.42578125 C1.32470408 13.05402794 1.27829153 14.68316504 1.25 16.3125 C1.20552734 17.56643555 1.20552734 17.56643555 1.16015625 18.84570312 C1.08983893 20.89662485 1.04261027 22.94831562 1 25 C-0.65 25 -2.3 25 -4 25 C-4.01458252 24.40985107 -4.02916504 23.81970215 -4.04418945 23.21166992 C-4.11868844 20.53628771 -4.21533995 17.86215108 -4.3125 15.1875 C-4.33505859 14.25873047 -4.35761719 13.32996094 -4.38085938 12.37304688 C-4.4340332 11.0340332 -4.4340332 11.0340332 -4.48828125 9.66796875 C-4.51446533 8.84578857 -4.54064941 8.0236084 -4.56762695 7.17651367 C-5.09768874 4.50824669 -5.81141107 3.58798615 -8 2 C-11.72986522 1.73358106 -14.44646071 1.8154869 -18 3 C-19.01466015 5.72307331 -19.17209858 8.44197161 -19.31640625 11.328125 C-19.35830078 12.12734375 -19.40019531 12.9265625 -19.44335938 13.75 C-19.50233398 14.9875 -19.50233398 14.9875 -19.5625 16.25 C-19.60568359 17.09046875 -19.64886719 17.9309375 -19.69335938 18.796875 C-19.79908543 20.86440671 -19.90001295 22.93218281 -20 25 C-21.65 25 -23.3 25 -25 25 C-25 15.76 -25 6.52 -25 -3 C-23.35 -3 -21.7 -3 -20 -3 C-19.67 -2.34 -19.34 -1.68 -19 -1 C-18.01 -1.66 -17.02 -2.32 -16 -3 C-10.31434628 -4.94936699 -4.83541712 -3.22361141 0 0 Z " fill="#000000" transform="translate(277,243)"/>
<path d="M0 0 C3.40408463 3.61039279 3.98347626 6.1918009 4.375 11.125 C4.21969936 16.27904005 2.42010444 19.66533744 -1 23.5 C-5.20629878 25.91638441 -9.11779799 26.38864326 -13.9375 26.1875 C-18.19296206 24.69020779 -21.03267996 22.63024968 -23.9375 19.1875 C-25.66416189 14.00751432 -25.84722877 8.39000122 -23.75 3.3125 C-21.07894096 0.18091353 -18.56223826 -2.18065734 -14.6875 -3.6875 C-9.30885807 -3.93198372 -4.58178508 -2.82705888 0 0 Z M-18.9375 5.1875 C-20.68215448 8.67680896 -20.50200552 12.38036977 -19.9375 16.1875 C-17.9500694 19.2307531 -16.61708873 20.80823803 -13 21.625 C-9.16023235 21.85771319 -7.30038196 21.41912678 -4 19.3125 C-0.84054642 16.0573054 -0.60328757 13.76336762 -0.64453125 9.2265625 C-1.10004967 6.05615433 -2.69065657 4.3682598 -4.9375 2.1875 C-10.42792646 -0.55771323 -14.83898521 1.08898521 -18.9375 5.1875 Z " fill="#000000" transform="translate(330.9375,242.8125)"/>
<path d="M0 0 C3.62506638 2.85377566 5.99240924 5.46584158 7 10 C7.06313847 14.77484676 6.70549634 18.7246797 4.375 22.9375 C0.08345282 26.66436992 -3.88916971 28.3290935 -9.5625 27.9375 C-13.88642331 27.22298456 -16.76363362 26.08225369 -20 23 C-22.54067244 18.50427111 -23.38457482 14.34481073 -22.5 9.25 C-21.28778908 5.04032209 -19.58866886 2.6316905 -16 0 C-10.34617093 -2.50073209 -5.65028482 -2.24739284 0 0 Z M-14.9375 5.0625 C-17.42007096 8.59828288 -18 10.68713322 -18 15 C-16.48483372 19.01519063 -15.5944747 20.60368353 -12 23 C-7.53182425 23.43240411 -5.0920001 23.53438303 -1.0625 21.5625 C1.867231 17.92253118 2.4321898 14.62603158 2 10 C-0.1947215 5.70737382 -0.1947215 5.70737382 -4 3 C-9.87637814 2.38217959 -9.87637814 2.38217959 -14.9375 5.0625 Z " fill="#000000" transform="translate(397,241)"/>
<path d="M0 0 C4.16656401 4.44001726 4.43212268 8.1918547 4.3515625 13.9921875 C4.31804687 14.94351563 4.28453125 15.89484375 4.25 16.875 C4.23195313 17.84953125 4.21390625 18.8240625 4.1953125 19.828125 C4.14841734 22.21977807 4.08280907 24.60936597 4 27 C2.35 27 0.7 27 -1 27 C-1.01458252 26.40985107 -1.02916504 25.81970215 -1.04418945 25.21166992 C-1.11868844 22.53628771 -1.21533995 19.86215108 -1.3125 17.1875 C-1.33505859 16.25873047 -1.35761719 15.32996094 -1.38085938 14.37304688 C-1.4340332 13.0340332 -1.4340332 13.0340332 -1.48828125 11.66796875 C-1.51446533 10.84578857 -1.54064941 10.0236084 -1.56762695 9.17651367 C-2.09753813 6.50900485 -2.81972036 5.59575087 -5 4 C-8.70695534 3.59560487 -11.07814135 3.4905518 -14.375 5.3125 C-16.8916109 7.92590363 -17.13369584 10.5402209 -17.31640625 14.01171875 C-17.35830078 14.76904297 -17.40019531 15.52636719 -17.44335938 16.30664062 C-17.48267578 17.09232422 -17.52199219 17.87800781 -17.5625 18.6875 C-17.60568359 19.48478516 -17.64886719 20.28207031 -17.69335938 21.10351562 C-17.79927368 23.06881447 -17.90012551 25.03438496 -18 27 C-19.65 27 -21.3 27 -23 27 C-23 17.76 -23 8.52 -23 -1 C-21.35 -1 -19.7 -1 -18 -1 C-17.67 -0.34 -17.34 0.32 -17 1 C-16.01 0.34 -15.02 -0.32 -14 -1 C-9.45329451 -2.60471959 -4.31261426 -2.09073071 0 0 Z " fill="#000000" transform="translate(433,241)"/>
<path d="M0 0 C1.65 0 3.3 0 5 0 C5 1.98 5 3.96 5 6 C7.97 6 10.94 6 14 6 C14 7.32 14 8.64 14 10 C11.03 10 8.06 10 5 10 C5.33 15.94 5.66 21.88 6 28 C9.60482214 30.29255415 9.60482214 30.29255415 12.25 29.625 C12.8275 29.41875 13.405 29.2125 14 29 C14.33 30.32 14.66 31.64 15 33 C11.51195905 35.32536063 10.09859246 35.33457898 6 35 C3.2197816 34.15048882 2.30471871 33.55324816 0.8984375 31 C-0.34289485 26.85502937 -0.21322078 22.98656623 -0.125 18.6875 C-0.11597656 17.85154297 -0.10695313 17.01558594 -0.09765625 16.15429688 C-0.07420989 14.10274031 -0.03834266 12.05133223 0 10 C-1.65 10 -3.3 10 -5 10 C-5 8.68 -5 7.36 -5 6 C-3.35 6 -1.7 6 0 6 C0 4.02 0 2.04 0 0 Z " fill="#000000" transform="translate(342,234)"/>
<path d="M0 0 C1.65 0 3.3 0 5 0 C5 9.24 5 18.48 5 28 C3.35 28 1.7 28 0 28 C0 18.76 0 9.52 0 0 Z " fill="#000000" transform="translate(363,240)"/>
<path d="M0 0 C2.19443916 1.61162044 2.90775165 2.49263406 3.3984375 5.19140625 C3.39070313 5.97386719 3.38296875 6.75632813 3.375 7.5625 C3.38273437 8.34753906 3.39046875 9.13257813 3.3984375 9.94140625 C3.26695312 10.62074219 3.13546875 11.30007812 3 12 C-0.7762638 14.5175092 -3.56353277 14.73941121 -8 14 C-10.6923481 11.81246717 -10.93936827 10.41576045 -11.4375 7 C-11 4 -11 4 -9.4375 1.625 C-6.1005787 -0.5996142 -3.93094707 -0.50030235 0 0 Z M-7.8125 3.125 C-9.28841236 5.06197483 -9.28841236 5.06197483 -8.875 8.0625 C-8.25349587 11.29255415 -8.25349587 11.29255415 -5 13 C-2.35367713 12.6878236 -2.35367713 12.6878236 0 12 C0.66 10.02 1.32 8.04 2 6 C0.25065102 3.91666921 0.25065102 3.91666921 -2 2 C-5.78911589 1.64842476 -5.78911589 1.64842476 -7.8125 3.125 Z " fill="#000000" transform="translate(452,228)"/>
<path d="M0 0 C2.475 0.495 2.475 0.495 5 1 C5 3.31 5 5.62 5 8 C3.35 8 1.7 8 0 8 C0 5.36 0 2.72 0 0 Z M2 2 C3 4 3 4 3 4 Z " fill="#000000" transform="translate(446,231)"/>
<path d="M0 0 C2 0.25 2 0.25 4 1 C4.33 1.99 4.66 2.98 5 4 C4.01 4.99 3.02 5.98 2 7 C0.68 6.34 -0.64 5.68 -2 5 C-1.125 1.125 -1.125 1.125 0 0 Z " fill="#000000" transform="translate(364,228)"/>
</svg>
